<?xml version="1.0" encoding="utf-8"?>
<!-- Generator: Adobe Illustrator 24.0.1, SVG Export Plug-In . SVG Version: 6.00 Build 0)  -->
<svg version="1.1" id="Layer_1" xmlns="http://www.w3.org/2000/svg" xmlns:xlink="http://www.w3.org/1999/xlink" x="0px" y="0px"
	 viewBox="0 0 77.3 74.9" style="enable-background:new 0 0 77.3 74.9;" xml:space="preserve">
<style type="text/css">
	.st0{fill:#1E7C85;}
	.st1{fill:#28A5B2;}
	.st2{fill:#CBF3F4;}
	.st3{fill:#DEFDFF;}
	.st4{fill:#FF4800;}
	.st5{fill:#5ECCE5;}
</style>
<g id="XMLID_62_">
	<g id="XMLID_251_">
		<g id="XMLID_322_">
			<g id="XMLID_492_">
				<path id="XMLID_182_" class="st0" d="M20,33.5c-3.5,10.6,2.4,22.1,13.1,25.7c2.1,0.7,4.2,1,6.3,1v-0.8c-2,0-4.1-0.3-6.1-1
					C23.1,55.1,17.5,44,20.9,33.8c2.7-8.2,10.3-13.4,18.5-13.4v-0.8C30.8,19.5,22.8,24.9,20,33.5z"/>
			</g>
			<g id="XMLID_505_">
				<path id="XMLID_181_" class="st1" d="M45.5,21.3C55.7,24.7,61.3,35.7,58,46c-2.7,8.2-10.4,13.4-18.6,13.4v0.8
					c8.6,0,16.6-5.4,19.4-13.9c3.5-10.6-2.4-22.1-13.1-25.7c-2.1-0.7-4.2-1-6.3-1v0.8C41.4,20.3,43.5,20.7,45.5,21.3z"/>
			</g>
			<g id="XMLID_507_">
				<path id="XMLID_179_" class="st0" d="M33.5,57.8c-9.9-3.3-15.3-14-12.1-23.9c2.6-7.9,10-13,18-13v-0.6
					c-8.2,0-15.8,5.2-18.5,13.4C17.5,44,23.1,55.1,33.3,58.4c2,0.7,4.1,1,6.1,1v-0.6C37.5,58.8,35.5,58.5,33.5,57.8z"/>
			</g>
			<g id="XMLID_511_">
				<path id="XMLID_178_" class="st1" d="M58,46c3.4-10.2-2.2-21.3-12.5-24.6c-2-0.7-4.1-1-6.1-1V21c2,0,3.9,0.3,5.9,0.9
					c9.9,3.3,15.3,14,12.1,23.9c-2.6,8-10,13-18,13v0.6C47.6,59.4,55.3,54.2,58,46z"/>
			</g>
			<g id="XMLID_515_">
				<g id="XMLID_80_">
					<path class="st2" d="M39.4,22.1c0.3,0,0.6,0.3,0.6,0.6l0,2.3c0,0.3-0.3,0.6-0.6,0.6c0,0,0,0,0,0v13c1,0,1.8,0.8,1.8,1.8
						c0,1-0.8,1.8-1.8,1.8v11.9c0,0,0,0,0,0c0.3,0,0.6,0.3,0.6,0.6l0,2.3c0,0.3-0.3,0.6-0.6,0.6c0,0,0,0,0,0v1.1c7.9,0,15.4-5,18-13
						c3.3-9.9-2.2-20.6-12.1-23.9c-2-0.6-3.9-0.9-5.9-0.9L39.4,22.1L39.4,22.1z M48.3,55.3c-0.2,0.1-0.4,0.1-0.6,0
						c-0.1-0.1-0.2-0.1-0.2-0.2l-1.1-2c-0.2-0.3-0.1-0.7,0.2-0.8c0.3-0.2,0.7-0.1,0.8,0.2l1.1,1.9C48.7,54.7,48.6,55.1,48.3,55.3z
						 M54.8,48.8c-0.2,0.3-0.5,0.4-0.8,0.2l-2-1.1c-0.3-0.2-0.4-0.5-0.2-0.8c0.2-0.3,0.5-0.4,0.8-0.2l1.9,1.1
						C54.9,48.1,55,48.5,54.8,48.8z M57.2,39.9c0,0.3-0.3,0.6-0.6,0.6l-2.3,0c-0.1,0-0.2,0-0.3-0.1c-0.2-0.1-0.3-0.3-0.3-0.5
						c0-0.3,0.3-0.6,0.6-0.6l2.3,0C56.9,39.3,57.2,39.5,57.2,39.9z M52,31.9l2-1.1c0.3-0.2,0.7-0.1,0.8,0.2c0.2,0.3,0.1,0.7-0.2,0.8
						l-2,1.1c-0.2,0.1-0.4,0.1-0.6,0c-0.1-0.1-0.2-0.1-0.2-0.2C51.6,32.4,51.7,32,52,31.9z M46.3,26.6l1.1-2
						c0.2-0.3,0.5-0.4,0.8-0.2c0.3,0.2,0.4,0.5,0.2,0.8l-1.1,2c-0.2,0.3-0.5,0.4-0.8,0.2C46.3,27.3,46.2,26.9,46.3,26.6z"/>
				</g>
			</g>
			<g id="XMLID_607_">
				<g id="XMLID_71_">
					<path class="st3" d="M21.5,34c-3.3,9.9,2.2,20.6,12.1,23.9c2,0.6,3.9,0.9,5.9,0.9v-1.1c-0.1,0-0.2,0-0.3-0.1
						c-0.2-0.1-0.3-0.3-0.3-0.5v-2.3c0-0.3,0.3-0.6,0.6-0.6V42.3l0,0c-1,0-1.8-0.8-1.8-1.8c0-1,0.8-1.8,1.8-1.8l0,0v-13
						c-0.1,0-0.2,0-0.3-0.1c-0.2-0.1-0.3-0.3-0.3-0.5v-2.3c0-0.3,0.3-0.6,0.6-0.6V21C31.5,21,24.1,26,21.5,34z M21.9,40.4
						c-0.2-0.1-0.3-0.3-0.3-0.5c0-0.3,0.3-0.6,0.6-0.6l2.3,0c0.3,0,0.6,0.3,0.6,0.6c0,0.3-0.3,0.6-0.6,0.6l-2.3,0
						C22.1,40.5,22,40.5,21.9,40.4z M32.5,53.1l-1.1,2c-0.2,0.3-0.5,0.4-0.8,0.2c-0.3-0.2-0.4-0.5-0.2-0.8l1.1-1.9
						c0.2-0.3,0.5-0.4,0.8-0.2C32.6,52.4,32.7,52.8,32.5,53.1z M30.5,24.5c0.3-0.2,0.7-0.1,0.8,0.2l1.1,2c0.2,0.3,0.1,0.7-0.2,0.8
						c-0.2,0.1-0.4,0.1-0.6,0c-0.1-0.1-0.2-0.1-0.2-0.2l-1.1-2C30.1,25,30.2,24.6,30.5,24.5z M26.8,47.9l-2,1.1
						c-0.2,0.1-0.4,0.1-0.6,0c-0.1-0.1-0.2-0.1-0.2-0.2c-0.2-0.3-0.1-0.7,0.2-0.8l2-1.1c0.3-0.2,0.7-0.1,0.8,0.2
						C27.2,47.3,27.1,47.7,26.8,47.9z M27,32.7c-0.2,0.3-0.5,0.4-0.8,0.2l-2-1.1C24,31.6,23.9,31.3,24,31c0.2-0.3,0.5-0.4,0.8-0.2
						l2,1.1C27.1,32,27.2,32.4,27,32.7z"/>
				</g>
			</g>
			<g id="XMLID_613_">
				<path id="XMLID_177_" class="st0" d="M54.6,47.9l-1.9-1.1c-0.3-0.2-0.7-0.1-0.8,0.2c-0.2,0.3-0.1,0.7,0.2,0.8l2,1.1
					c0.3,0.2,0.7,0.1,0.8-0.2C55,48.5,54.9,48.1,54.6,47.9z"/>
			</g>
			<g id="XMLID_614_">
				<path id="XMLID_176_" class="st0" d="M53.7,39.9c0,0.2,0.1,0.4,0.3,0.5c0.1,0.1,0.2,0.1,0.3,0.1l2.3,0c0.3,0,0.6-0.3,0.6-0.6
					c0-0.3-0.3-0.6-0.6-0.6l-2.3,0C54,39.2,53.7,39.5,53.7,39.9z"/>
			</g>
			<g id="XMLID_615_">
				<path id="XMLID_175_" class="st0" d="M47.4,52.5c-0.2-0.3-0.5-0.4-0.8-0.2c-0.3,0.2-0.4,0.5-0.2,0.8l1.1,2
					c0.1,0.1,0.1,0.2,0.2,0.2c0.2,0.1,0.4,0.1,0.6,0c0.3-0.2,0.4-0.5,0.2-0.8L47.4,52.5z"/>
			</g>
			<g id="XMLID_617_">
				<path id="XMLID_173_" class="st0" d="M52,32.9c0.2,0.1,0.4,0.1,0.6,0l2-1.1c0.3-0.2,0.4-0.5,0.2-0.8c-0.2-0.3-0.5-0.4-0.8-0.2
					l-2,1.1c-0.3,0.2-0.4,0.5-0.2,0.8C51.9,32.8,51.9,32.9,52,32.9z"/>
			</g>
			<g id="XMLID_619_">
				<path id="XMLID_172_" class="st0" d="M40,57l0-2.3c0-0.3-0.3-0.6-0.6-0.6c0,0,0,0,0,0v3.5c0,0,0,0,0,0C39.8,57.7,40,57.4,40,57z
					"/>
			</g>
			<g id="XMLID_620_">
				<path id="XMLID_171_" class="st0" d="M38.8,54.8V57c0,0.2,0.1,0.4,0.3,0.5c0.1,0,0.2,0.1,0.3,0.1v-3.5
					C39.1,54.2,38.8,54.4,38.8,54.8z"/>
			</g>
			<g id="XMLID_621_">
				<path id="XMLID_170_" class="st0" d="M46.6,27.5c0.3,0.2,0.7,0.1,0.8-0.2l1.1-2c0.2-0.3,0.1-0.7-0.2-0.8
					c-0.3-0.2-0.7-0.1-0.8,0.2l-1.1,2C46.2,26.9,46.3,27.3,46.6,27.5z"/>
			</g>
			<g id="XMLID_622_">
				<path id="XMLID_169_" class="st0" d="M32.3,52.3c-0.3-0.2-0.7-0.1-0.8,0.2l-1.1,1.9c-0.2,0.3-0.1,0.7,0.2,0.8
					c0.3,0.2,0.7,0.1,0.8-0.2l1.1-2C32.7,52.8,32.6,52.4,32.3,52.3z"/>
			</g>
			<g id="XMLID_623_">
				<path id="XMLID_168_" class="st0" d="M40,25l0-2.3c0-0.3-0.3-0.6-0.6-0.6h0v3.5c0,0,0,0,0,0C39.8,25.6,40,25.3,40,25z"/>
			</g>
			<g id="XMLID_624_">
				<path id="XMLID_167_" class="st0" d="M38.8,22.7V25c0,0.2,0.1,0.4,0.3,0.5c0.1,0.1,0.2,0.1,0.3,0.1v-3.5
					C39.1,22.1,38.8,22.4,38.8,22.7z"/>
			</g>
			<g id="XMLID_625_">
				<path id="XMLID_166_" class="st0" d="M26.2,46.8l-2,1.1c-0.3,0.2-0.4,0.5-0.2,0.8c0.1,0.1,0.1,0.2,0.2,0.2
					c0.2,0.1,0.4,0.1,0.6,0l2-1.1c0.3-0.2,0.4-0.5,0.2-0.8C26.9,46.7,26.5,46.6,26.2,46.8z"/>
			</g>
			<g id="XMLID_626_">
				<path id="XMLID_165_" class="st0" d="M31.4,27.3c0.1,0.1,0.1,0.2,0.2,0.2c0.2,0.1,0.4,0.1,0.6,0c0.3-0.2,0.4-0.5,0.2-0.8l-1.1-2
					c-0.2-0.3-0.5-0.4-0.8-0.2c-0.3,0.2-0.4,0.5-0.2,0.8L31.4,27.3z"/>
			</g>
			<g id="XMLID_627_">
				<path id="XMLID_164_" class="st0" d="M25.1,39.9c0-0.3-0.3-0.6-0.6-0.6l-2.3,0c-0.3,0-0.6,0.3-0.6,0.6c0,0.2,0.1,0.4,0.3,0.5
					c0.1,0.1,0.2,0.1,0.3,0.1l2.3,0C24.9,40.5,25.1,40.2,25.1,39.9z"/>
			</g>
			<g id="XMLID_628_">
				<path id="XMLID_163_" class="st0" d="M24,31c-0.2,0.3-0.1,0.7,0.2,0.8l2,1.1c0.3,0.2,0.7,0.1,0.8-0.2c0.2-0.3,0.1-0.7-0.2-0.8
					l-2-1.1C24.6,30.6,24.2,30.7,24,31z"/>
			</g>
			<g id="XMLID_629_">
				<path class="st4" d="M57.2,24.3l1.9-1.8l-2.4-2.2L55,22.1C55.8,22.8,56.5,23.5,57.2,24.3z"/>
			</g>
			<g id="XMLID_630_">
				<path id="XMLID_162_" class="st0" d="M57.2,24.3c-0.7-0.8-1.5-1.5-2.4-2.2l0.1-0.1c0,0,0,0,0,0c-1-0.9-2.1-1.7-3.3-2.4
					c-3.2-1.9-6.6-3-10-3.3c-0.7-0.1-1.4-0.1-2.2-0.1v3.3c2.1,0,4.2,0.3,6.3,1c10.7,3.5,16.6,15,13.1,25.7
					C56,54.8,48,60.2,39.4,60.2v3.3c8,0,15.8-4.1,20.3-11.5C65.1,43,63.8,31.9,57.2,24.3z"/>
			</g>
			<g id="XMLID_631_">
				<path id="XMLID_161_" class="st1" d="M33.1,59.2c-10.7-3.5-16.6-15-13.1-25.7c2.8-8.5,10.8-14,19.4-13.9v-3.3
					c-0.7,0-1.4,0-2.2,0.1C30,17,23.2,21,19.2,27.7c-6.7,11.2-3.1,25.7,8.1,32.4c3.8,2.3,8,3.4,12.2,3.4v-3.3
					C37.3,60.2,35.2,59.8,33.1,59.2z"/>
			</g>
			<g id="XMLID_632_">
				<path id="XMLID_160_" class="st0" d="M57.2,24.3c-0.7-0.8-1.5-1.6-2.3-2.3l-0.1,0.1C55.7,22.8,56.5,23.6,57.2,24.3z"/>
			</g>
			<g id="XMLID_633_">
				<path id="XMLID_159_" class="st0" d="M39.4,16.2v-2.3h-0.2v0h-0.7v0h-0.9v0l-0.7,0v0h0.2l0,2.4C38,16.3,38.7,16.2,39.4,16.2z"/>
			</g>
			<g id="XMLID_634_">
				<rect id="XMLID_158_" x="41.7" y="13.9" class="st0" width="0.7" height="0"/>
			</g>
			<g id="XMLID_635_">
				<polygon id="XMLID_157_" class="st0" points="34.6,13.9 36.2,13.9 36.2,13.9 				"/>
			</g>
			<g id="XMLID_636_">
				<path id="XMLID_155_" class="st0" d="M40.8,13.9h-0.7v0l-0.7,0v2.3c0.7,0,1.4,0,2.2,0.1l0-2.4L40.8,13.9L40.8,13.9z"/>
			</g>
			<g id="XMLID_637_">
				<polygon id="XMLID_154_" class="st0" points="43.2,13.9 44.2,13.9 43.2,13.9 				"/>
			</g>
			<g id="XMLID_638_">
				<polygon id="XMLID_153_" class="st0" points="40.1,9.2 40.1,13.9 40.8,13.9 40.8,9.2 41.7,9.2 41.7,13.9 42.3,13.9 42.3,9.3 
					43.2,9.3 43.2,13.9 44.2,13.9 44.2,9.2 39.4,9.2 39.4,9.2 				"/>
			</g>
			<g id="XMLID_639_">
				<polygon id="XMLID_152_" class="st0" points="36.2,9.2 37,9.2 37,13.9 37.7,13.9 37.7,9.2 38.6,9.2 38.6,13.9 39.2,13.9 
					39.2,9.2 39.4,9.2 39.4,9.2 34.6,9.2 35.5,9.2 35.5,13.9 34.6,13.9 36.2,13.9 				"/>
			</g>
			<g id="XMLID_640_">
				<rect x="34.6" y="9.2" class="st5" width="0.9" height="4.7"/>
			</g>
			<g id="XMLID_641_">
				<rect x="36.2" y="13.9" class="st5" width="0.9" height="0"/>
			</g>
			<g id="XMLID_642_">
				<rect x="36.2" y="13.9" class="st5" width="0.9" height="0"/>
			</g>
			<g id="XMLID_643_">
				<rect x="36.2" y="9.2" class="st5" width="0.9" height="4.7"/>
			</g>
			<g id="XMLID_644_">
				<rect x="37.7" y="13.9" class="st5" width="0.9" height="0"/>
			</g>
			<g id="XMLID_645_">
				<rect x="37.7" y="9.2" class="st5" width="0.9" height="4.7"/>
			</g>
			<g id="XMLID_646_">
				<rect x="39.2" y="13.9" class="st5" width="0.2" height="0"/>
			</g>
			<g id="XMLID_647_">
				<rect x="39.4" y="13.9" class="st5" width="0.7" height="0"/>
			</g>
			<g id="XMLID_648_">
				<rect x="39.2" y="9.2" class="st5" width="0.2" height="4.7"/>
			</g>
			<g id="XMLID_649_">
				<rect x="39.4" y="9.2" class="st5" width="0.7" height="4.7"/>
			</g>
			<g id="XMLID_650_">
				<rect x="41.6" y="13.9" class="st5" width="0.1" height="0"/>
			</g>
			<g id="XMLID_651_">
				<polygon class="st5" points="40.8,13.9 40.8,14 41.6,14 41.6,13.9 41.7,13.9 41.7,13.9 				"/>
			</g>
			<g id="XMLID_652_">
				<rect x="40.8" y="9.2" class="st5" width="0.9" height="4.7"/>
			</g>
			<g id="XMLID_653_">
				<rect x="42.3" y="13.9" class="st5" width="0.9" height="0.1"/>
			</g>
			<g id="XMLID_654_">
				<rect x="42.3" y="13.9" class="st5" width="0.9" height="0"/>
			</g>
			<g id="XMLID_655_">
				<rect x="42.3" y="9.3" class="st5" width="0.9" height="4.6"/>
			</g>
		</g>
		<g id="XMLID_250_">
			<path class="st4" d="M40.5,40.5h-2.2V27.6c0-0.6,0.5-1.1,1.1-1.1l0,0c0.6,0,1.1,0.5,1.1,1.1V40.5z"/>
		</g>
		<g id="XMLID_656_">
			<path id="XMLID_151_" class="st0" d="M41.2,40.4c0-1-0.8-1.8-1.8-1.8v3.6C40.4,42.3,41.2,41.4,41.2,40.4z"/>
		</g>
		<g id="XMLID_657_">
			<path id="XMLID_63_" class="st1" d="M39.4,38.6c-1,0-1.8,0.8-1.8,1.8c0,1,0.8,1.8,1.8,1.8l0,0V38.6L39.4,38.6z"/>
		</g>
	</g>
	<g id="XMLID_323_">
		<path id="XMLID_150_" class="st4" d="M39.3,72.1c-19,0-34.4-15.4-34.4-34.4c0-14.2,8.5-26.7,21.6-32l1.1,2.8
			c-12,4.8-19.8,16.3-19.8,29.2C7.9,55,22,69.1,39.3,69.1c17.3,0,31.4-14.1,31.4-31.4c0-5-1.1-9.8-3.4-14.2l2.7-1.4
			c2.5,4.8,3.7,10.1,3.7,15.5C73.7,56.7,58.3,72.1,39.3,72.1z"/>
	</g>
	<g id="XMLID_320_">
		<g id="XMLID_68_">
			<path id="XMLID_149_" class="st4" d="M27.7,8.5l-1.1-2.8c0.6-0.3,1.3-0.5,2-0.7l0.9,2.8C28.9,8.1,28.3,8.3,27.7,8.5z"/>
		</g>
		<g id="XMLID_67_">
			<path id="XMLID_115_" class="st4" d="M64.3,18.6c-0.8-1-1.6-2-2.5-2.9l2.1-2.1c1,1,1.9,2.1,2.8,3.2L64.3,18.6z M58.8,13.1
				c-1-0.8-2.1-1.6-3.2-2.2l1.6-2.6c1.2,0.7,2.4,1.6,3.5,2.4L58.8,13.1z M52.2,9c-1.2-0.5-2.4-1-3.6-1.4l0.9-2.9
				c1.4,0.4,2.7,0.9,4,1.5L52.2,9z M33.2,6.9l-0.6-2.9c1.4-0.3,2.8-0.5,4.2-0.6l0.2,3C35.8,6.5,34.5,6.6,33.2,6.9z M44.8,6.8
				c-1.3-0.2-2.6-0.4-3.9-0.4l0.2-3c1.4,0.1,2.8,0.2,4.2,0.5L44.8,6.8z"/>
		</g>
		<g id="XMLID_66_">
			<path id="XMLID_91_" class="st4" d="M67.4,23.5c-0.3-0.6-0.6-1.1-0.9-1.7l2.6-1.5c0.4,0.6,0.7,1.2,1,1.8L67.4,23.5z"/>
		</g>
	</g>
	<g id="XMLID_324_">
		<polygon class="st4" points="25,17 17.3,4.8 30.6,4.8 		"/>
	</g>
</g>
</svg>
